# xmcd
#
# Track frame offsets:
#	150
#	17334
#	31941
#	42403
#	52210
#	65124
#	77439
#	94226
#	108262
#	122521
#	134808
#	148502
#
# Disc length: 2197 seconds
#
# Revision: 1
# Processed by: cddbd v1.5.1PL2 Copyright (c) Steve Scherf et al.
# Submitted via: EasyCDDAExtractor 8.2.3.1
#
DISCID=a508930c
DTITLE=Jacó e Jacózinho - 76
DYEAR=1976
DGENRE=Sertanejo
TTITLE0=Paranapanema
TTITLE1=Tropa saudosa
TTITLE2=Dois milagres
TTITLE3=Tomara que chova hoje
TTITLE4=Tira e põe
TTITLE5=Vira vira
TTITLE6=O carro e a gravadora
TTITLE7=Último adeus
TTITLE8=Rio Pari
TTITLE9=Amigo lavrador
TTITLE10=Pavão do reino
TTITLE11=Chumbo quente
EXTD=
EXTT0=
EXTT1=
EXTT2=
EXTT3=
EXTT4=
EXTT5=
EXTT6=
EXTT7=
EXTT8=
EXTT9=
EXTT10=
EXTT11=
PLAYORDER=
